<?xml version="1.0" encoding="UTF-8"?>
<svg xmlns="http://www.w3.org/2000/svg" xmlns:xlink="http://www.w3.org/1999/xlink" width="24pt" height="24pt" viewBox="0 0 24 24" version="1.1">
<g id="surface1">
<path style=" stroke:none;fill-rule:nonzero;fill:rgb(0%,0%,0%);fill-opacity:1;" d="M 0.59375 11.679688 C 0.734375 7.933594 2.632812 4.484375 6.101562 2.203125 C 6.109375 2.207031 6.199219 2.171875 6.160156 2.25 C 5.882812 2.503906 0.945312 8.339844 5.492188 12.945312 C 5.492188 12.945312 7.878906 15.242188 9.730469 13.0625 C 9.730469 13.0625 11.558594 10.695312 9.710938 7.109375 C 9.710938 7.109375 9.242188 5.9375 7.554688 5.210938 L 8.914062 3.710938 C 8.914062 3.710938 10.0625 4.203125 10.949219 5.542969 C 10.949219 5.542969 10.996094 4.132812 9.917969 2.632812 L 12.027344 0.242188 L 14.113281 2.613281 C 14.113281 2.613281 13.15625 3.96875 13.082031 5.5625 C 13.082031 5.5625 13.738281 4.484375 15.144531 3.710938 L 16.480469 5.210938 C 16.480469 5.210938 15.195312 5.632812 14.335938 7.09375 C 13.597656 8.445312 13.027344 11.335938 14.371094 13.113281 C 14.371094 13.113281 15.871094 15.242188 18.515625 12.984375 C 18.515625 12.984375 23.371094 8.632812 18.015625 2.34375 C 18.015625 2.34375 17.722656 2.082031 18.050781 2.222656 C 20.417969 3.945312 23.253906 6.21875 23.546875 11.890625 C 23.429688 18.769531 18.824219 23.675781 12.097656 23.675781 C 5.515625 23.675781 0.394531 18.183594 0.59375 11.679688 "/>
</g>
</svg>
