<?xml version="1.0" encoding="UTF-8"?>
<svg xmlns="http://www.w3.org/2000/svg" xmlns:xlink="http://www.w3.org/1999/xlink" width="24pt" height="24pt" viewBox="0 0 24 24" version="1.1">
<g id="surface1">
<path style=" stroke:none;fill-rule:nonzero;fill:rgb(0%,0%,0%);fill-opacity:1;" d="M 12 0 C 5.375 0 0 5.375 0 12 C 0 18.625 5.375 24 12 24 C 18.625 24 24 18.625 24 12 C 24 5.375 18.625 0 12 0 Z M 11.433594 0.996094 C 11.441406 0.996094 11.449219 0.996094 11.453125 0.996094 L 11.503906 1.808594 C 10.8125 1.839844 10.140625 1.941406 9.488281 2.105469 L 9.691406 2.902344 C 7.988281 3.332031 6.46875 4.230469 5.277344 5.453125 L 4.695312 4.878906 C 4.21875 5.367188 3.792969 5.902344 3.421875 6.476562 L 2.738281 6.027344 C 4.605469 3.136719 7.789062 1.179688 11.433594 0.996094 Z M 12.546875 0.996094 C 16.199219 1.171875 19.390625 3.132812 21.261719 6.027344 L 20.578125 6.476562 C 20.207031 5.90625 19.78125 5.367188 19.308594 4.882812 L 18.722656 5.453125 C 17.535156 4.230469 16.015625 3.332031 14.308594 2.902344 L 14.511719 2.105469 C 13.859375 1.941406 13.1875 1.839844 12.496094 1.808594 Z M 12 4.59375 C 12.347656 4.589844 12.695312 4.613281 12.980469 4.652344 L 12.53125 8.367188 C 13.472656 8.503906 14.292969 8.996094 14.863281 9.703125 L 17.84375 7.46875 C 18.203125 7.917969 18.613281 8.625 18.828125 9.160156 L 15.40625 10.625 C 15.578125 11.050781 15.671875 11.511719 15.671875 12 C 15.671875 12.46875 15.585938 12.917969 15.425781 13.328125 L 18.820312 14.78125 C 18.613281 15.320312 18.207031 16.027344 17.847656 16.480469 L 14.890625 14.265625 C 14.324219 14.988281 13.492188 15.492188 12.539062 15.632812 L 12.980469 19.285156 C 12.40625 19.375 11.59375 19.371094 11.019531 19.289062 L 11.460938 15.632812 C 10.507812 15.492188 9.675781 14.984375 9.109375 14.261719 L 6.15625 16.476562 C 5.796875 16.027344 5.386719 15.320312 5.171875 14.78125 L 8.574219 13.328125 C 8.414062 12.914062 8.328125 12.46875 8.328125 12 C 8.328125 11.511719 8.421875 11.046875 8.59375 10.621094 L 5.179688 9.164062 C 5.386719 8.625 5.792969 7.917969 6.152344 7.464844 L 9.136719 9.703125 C 9.707031 8.996094 10.527344 8.503906 11.46875 8.367188 L 11.019531 4.65625 C 11.304688 4.613281 11.652344 4.59375 12 4.59375 Z M 2.195312 6.96875 L 2.929688 7.332031 C 2.617188 7.933594 2.367188 8.566406 2.179688 9.230469 L 2.964844 9.453125 C 2.734375 10.261719 2.613281 11.117188 2.613281 12 C 2.613281 12.882812 2.734375 13.738281 2.964844 14.550781 L 2.179688 14.773438 C 2.363281 15.433594 2.617188 16.070312 2.929688 16.667969 L 2.195312 17.03125 C 1.417969 15.523438 0.980469 13.8125 0.980469 12 C 0.980469 10.1875 1.417969 8.476562 2.195312 6.96875 Z M 21.804688 6.96875 C 22.582031 8.476562 23.019531 10.1875 23.019531 12 C 23.019531 13.8125 22.582031 15.523438 21.804688 17.03125 L 21.070312 16.667969 C 21.382812 16.070312 21.632812 15.433594 21.820312 14.773438 L 21.035156 14.550781 C 21.265625 13.738281 21.386719 12.882812 21.386719 12 C 21.386719 11.117188 21.265625 10.261719 21.035156 9.453125 L 21.820312 9.230469 C 21.632812 8.566406 21.382812 7.933594 21.070312 7.332031 Z M 3.421875 17.523438 C 3.792969 18.097656 4.21875 18.632812 4.695312 19.121094 L 5.277344 18.546875 C 6.46875 19.769531 7.988281 20.667969 9.691406 21.097656 L 9.488281 21.894531 C 10.140625 22.058594 10.8125 22.160156 11.503906 22.191406 L 11.453125 23.003906 C 7.800781 22.828125 4.609375 20.867188 2.738281 17.972656 Z M 20.578125 17.523438 L 21.261719 17.972656 C 19.390625 20.867188 16.199219 22.828125 12.546875 23.003906 L 12.496094 22.191406 C 13.1875 22.160156 13.859375 22.058594 14.511719 21.894531 L 14.308594 21.097656 C 16.015625 20.667969 17.535156 19.769531 18.722656 18.546875 L 19.308594 19.117188 C 19.78125 18.628906 20.207031 18.097656 20.578125 17.523438 Z M 20.578125 17.523438 "/>
</g>
</svg>
