<?xml version="1.0" encoding="UTF-8"?>
<svg xmlns="http://www.w3.org/2000/svg" xmlns:xlink="http://www.w3.org/1999/xlink" width="24pt" height="24pt" viewBox="0 0 24 24" version="1.1">
<g id="surface1">
<path style=" stroke:none;fill-rule:evenodd;fill:rgb(0%,0%,0%);fill-opacity:1;" d="M 11.675781 15.394531 C 11.46875 15.09375 10.371094 13.488281 10.371094 13.488281 L 11.207031 15.792969 L 8.613281 16.167969 L 11.207031 16.546875 L 10.203125 18.515625 C 10.203125 18.515625 11.457031 17.195312 11.632812 17.011719 C 11.5625 19.863281 11.542969 20.566406 11.542969 20.566406 C 11.542969 20.566406 5.136719 17.59375 8.695312 11.019531 C 8.695312 11.019531 4.257812 6.121094 8.277344 3.105469 C 8.277344 3.105469 1.410156 7.25 5.765625 14.367188 C 5.765625 14.367188 2.164062 10.851562 4.046875 7.292969 C 4.046875 7.292969 0.78125 11.898438 4.757812 16.964844 C 4.757812 16.964844 3.671875 16.296875 2.707031 13.742188 C 2.707031 13.742188 3.410156 21.34375 11.917969 21.445312 C 11.945312 21.445312 11.976562 21.445312 12.003906 21.445312 C 12.03125 21.445312 12.058594 21.445312 12.085938 21.445312 C 20.59375 21.34375 21.296875 13.742188 21.296875 13.742188 C 20.335938 16.296875 19.246094 16.964844 19.246094 16.964844 C 23.222656 11.898438 19.957031 7.292969 19.957031 7.292969 C 21.84375 10.851562 18.242188 14.367188 18.242188 14.367188 C 22.597656 7.25 15.730469 3.105469 15.730469 3.105469 C 19.75 6.121094 15.308594 11.019531 15.308594 11.019531 C 18.871094 17.59375 12.460938 20.566406 12.460938 20.566406 C 12.460938 20.566406 12.445312 19.863281 12.371094 17.011719 C 12.546875 17.195312 13.800781 18.515625 13.800781 18.515625 L 12.796875 16.546875 L 15.394531 16.167969 L 12.796875 15.792969 L 13.636719 13.488281 C 13.636719 13.488281 12.535156 15.09375 12.332031 15.394531 C 12.238281 11.75 12.003906 2.703125 12.003906 2.660156 C 12.003906 2.558594 12.003906 2.558594 12.003906 2.558594 C 12.003906 2.558594 12.003906 2.558594 12.003906 2.601562 C 12 2.558594 12 2.558594 12 2.558594 C 12 2.558594 12 2.558594 12 2.660156 C 12 2.730469 11.769531 11.757812 11.675781 15.394531 "/>
<path style="fill:none;stroke-width:0.32;stroke-linecap:butt;stroke-linejoin:miter;stroke:rgb(0%,0%,0%);stroke-opacity:1;stroke-miterlimit:10;" d="M 672.250945 0.258817 C 301.03219 0.258817 0.250936 301.040071 0.250936 672.258825 C 0.250936 1043.25883 301.03219 1344.258834 672.250945 1344.258834 C 1043.25095 1344.258834 1344.250953 1043.25883 1344.250953 672.258825 C 1344.250953 301.040071 1043.25095 0.258817 672.250945 0.258817 Z M 672.250945 0.258817 " transform="matrix(0.0178571,0,0,0.0178571,-0.000574758,-0.000715478)"/>
<path style=" stroke:none;fill-rule:evenodd;fill:rgb(0%,0%,0%);fill-opacity:1;" d="M 12.003906 0.00390625 C 5.375 0.00390625 0.00390625 5.375 0.00390625 12.003906 C 0.00390625 18.628906 5.375 24.003906 12.003906 24.003906 C 18.628906 24.003906 24.003906 18.628906 24.003906 12.003906 C 24.003906 5.375 18.628906 0.00390625 12.003906 0.00390625 Z M 12.003906 1.441406 C 17.835938 1.441406 22.566406 6.167969 22.566406 12.003906 C 22.566406 17.835938 17.835938 22.566406 12.003906 22.566406 C 6.167969 22.566406 1.441406 17.835938 1.441406 12.003906 C 1.441406 6.167969 6.167969 1.441406 12.003906 1.441406 "/>
</g>
</svg>
