<?xml version="1.0" encoding="UTF-8"?>
<svg xmlns="http://www.w3.org/2000/svg" xmlns:xlink="http://www.w3.org/1999/xlink" width="24pt" height="23pt" viewBox="0 0 24 23" version="1.1">
<g id="surface1">
<rect x="0" y="0" width="24" height="23" style="fill:rgb(100%,100%,100%);fill-opacity:1;stroke:none;"/>
<path style=" stroke:none;fill-rule:evenodd;fill:rgb(0%,0%,0%);fill-opacity:1;" d="M 0.707031 9.691406 L 0.707031 11.199219 L 5.3125 11.199219 C 5.847656 11.199219 6.53125 10.726562 6.53125 9.941406 C 6.53125 9.625 6.660156 9.417969 6.273438 9 L 5.683594 8.332031 C 5.34375 8.03125 5.722656 8.03125 6.007812 8.03125 L 7.953125 8.03125 L 7.953125 11.199219 L 9.492188 11.199219 L 9.492188 8.03125 L 11.574219 8.03125 L 11.574219 6.671875 L 4.839844 6.671875 C 4.019531 6.671875 3.621094 7.425781 3.644531 7.820312 C 3.667969 8.210938 3.742188 8.707031 4.421875 9.296875 C 5.042969 9.839844 4.113281 9.691406 4.019531 9.691406 Z M 14.984375 6.671875 L 12.496094 6.671875 L 11.101562 11.199219 L 12.652344 11.199219 L 12.90625 10.566406 L 14.542969 10.566406 L 14.785156 11.199219 L 16.308594 11.199219 Z M 13.25 9.480469 L 13.789062 7.820312 L 14.292969 9.480469 Z M 21.222656 9.691406 C 20.625 9.691406 20.625 9.480469 20.625 9.480469 C 21.136719 9.480469 21.589844 8.761719 21.589844 8.03125 C 21.589844 7.296875 20.84375 6.671875 20.246094 6.671875 L 16.898438 6.671875 L 16.898438 11.199219 L 18.597656 11.199219 L 18.597656 9.691406 C 18.597656 9.691406 19.324219 10.507812 19.699219 10.839844 C 20.078125 11.171875 20.109375 11.199219 20.625 11.199219 L 23.292969 11.199219 L 23.292969 9.691406 C 23.292969 9.691406 21.820312 9.691406 21.222656 9.691406 Z M 19.679688 8.632812 L 18.597656 8.632812 L 18.597656 7.820312 L 19.679688 7.820312 C 20.171875 7.820312 20.257812 8.632812 19.679688 8.632812 Z M 0.707031 11.773438 L 2.445312 11.773438 L 2.886719 13.285156 L 3.296875 11.773438 L 5.125 11.773438 L 5.597656 13.285156 L 6.070312 11.773438 L 7.582031 11.773438 L 6.195312 16.300781 L 4.808594 16.300781 L 4.203125 14.160156 L 3.515625 16.300781 L 2.101562 16.300781 Z M 11.152344 11.800781 L 8.664062 11.800781 L 7.269531 16.328125 L 8.820312 16.328125 L 9.074219 15.695312 L 10.710938 15.695312 L 10.957031 16.328125 L 12.476562 16.328125 Z M 9.421875 14.605469 L 9.957031 12.945312 L 10.460938 14.605469 Z M 21.253906 13.132812 C 20.96875 13.132812 20.660156 13.164062 21 13.464844 L 21.589844 14.136719 C 21.976562 14.554688 21.96875 14.726562 21.96875 15.042969 C 21.96875 15.828125 21.160156 16.300781 20.625 16.300781 L 16.902344 16.328125 C 16.386719 16.328125 16.355469 16.296875 15.980469 15.964844 C 15.601562 15.632812 14.875 14.816406 14.875 14.816406 L 14.875 16.328125 L 13.175781 16.328125 L 13.175781 11.800781 L 16.523438 11.800781 C 17.121094 11.800781 17.867188 12.421875 17.867188 13.15625 C 17.867188 13.890625 17.414062 14.605469 16.902344 14.605469 C 16.902344 14.605469 17.125 14.824219 17.503906 14.824219 C 17.882812 14.824219 19.339844 14.824219 19.339844 14.824219 C 19.429688 14.824219 20.359375 14.972656 19.738281 14.433594 C 19.058594 13.839844 18.984375 13.34375 18.960938 12.953125 C 18.9375 12.558594 19.292969 11.773438 20.109375 11.773438 L 23.292969 11.773438 L 23.292969 13.132812 Z M 15.957031 13.761719 L 14.875 13.761719 L 14.875 12.945312 L 15.957031 12.945312 C 16.449219 12.945312 16.535156 13.761719 15.957031 13.761719 Z M 15.957031 13.761719 "/>
</g>
</svg>
